<?xml version="1.0" encoding="UTF-8" standalone="no"?><svg xmlns="http://www.w3.org/2000/svg" xmlns:xlink="http://www.w3.org/1999/xlink" fill="#98e8cd" height="396.1" preserveAspectRatio="xMidYMid meet" version="1" viewBox="0.0 0.0 396.1 396.1" width="396.1" zoomAndPan="magnify"><g id="change1_1"><path d="M0,297.07h99.022v99.024C44.334,396.094,0,351.76,0,297.07z M396.094,297.07l-99.022,0v99.024 C351.76,396.094,396.094,351.76,396.094,297.07z M396.094,198.047c0-54.689-44.334-99.023-99.022-99.023v99.023v99.023 C351.76,297.07,396.094,252.737,396.094,198.047z M297.071,0v99.024h99.022C396.094,44.334,351.76,0,297.071,0z M0,99.024l99.022,0 V0C44.334,0,0,44.334,0,99.024z M99.022,99.024C44.334,99.024,0,143.358,0,198.047c0,54.689,44.334,99.023,99.022,99.023v-99.023 V99.024z M206.35,296.721c50.804-4.217,90.722-46.781,90.722-98.674c0-51.893-39.918-94.457-90.722-98.674v-0.349l90.722,0 C297.071,44.334,252.737,0,198.049,0v0.09c-0.001,0-0.003,0-0.004-0.001V0c-0.332,0-0.662,0.009-0.993,0.013 C196.968,0.01,196.887,0,196.803,0c-0.061,0-0.119,0.013-0.178,0.018c-54.033,0.76-97.603,44.791-97.603,99.006h95.721v0.061 c-53.16,1.742-95.721,45.379-95.721,98.963c0,53.584,42.562,97.22,95.721,98.963v0.061l-95.721,0 c0,54.69,44.334,99.024,99.022,99.024v-0.175c0.001,0,0.003,0,0.004-0.001v0.175c54.688,0,99.022-44.334,99.022-99.024H206.35 V296.721z" fill="inherit"/></g></svg>